<svg width="512" height="512" xmlns="http://www.w3.org/2000/svg">

 <g>
  <title>background</title>
  <rect fill="none" id="canvas_background" height="402" width="582" y="-1" x="-1"/>
 </g>
 <g>
  <title>Layer 1</title>
  <path fill="#ffffff" id="svg_1" d="m449.441,393.818l0,-214.966c0,-31.555 -27.967,-57.236 -62.365,-57.236l-17.086,0l0,-3.434c0,-31.566 -27.967,-57.236 -62.365,-57.236l-23.034,0l-132.005,0l-27.661,0c-34.388,0 -62.365,25.67 -62.365,57.236l0,214.965c0,31.555 27.978,57.236 62.365,57.236l17.084,0l0,3.435c0,31.565 27.978,57.235 62.366,57.235l27.661,0l132.005,0l11.867,0l11.167,0c34.399,0 62.366,-25.669 62.366,-57.235zm-85.4,38.5l-132.005,0l-27.661,0c-23.177,0 -41.956,-17.237 -41.956,-38.5l0,-3.435l0,-18.736l0,-192.795c0,-21.263 18.779,-38.5 41.956,-38.5l27.661,0l117.545,0l14.46,0l5.949,0l17.085,0c23.177,0 41.956,17.237 41.956,38.5l0,214.966c0,21.263 -18.779,38.5 -41.956,38.5l-11.167,0l-11.867,0z"/>
  <path fill="#cecece" id="svg_2" d="m197.397,214.935l162.334,0c4.484,0 8.115,-3.632 8.115,-8.116s-3.631,-8.115 -8.115,-8.115l-162.334,0c-4.484,0 -8.116,3.631 -8.116,8.115s3.632,8.116 8.116,8.116z"/>
  <path fill="#cecece" id="svg_3" d="m223.046,261.967c0,4.484 3.642,8.115 8.126,8.115l152.119,0c4.484,0 8.126,-3.631 8.126,-8.115s-3.642,-8.127 -8.126,-8.127l-152.119,0c-4.484,0 -8.126,3.642 -8.126,8.127z"/>
  <path fill="#cecece" id="svg_4" d="m348.083,317.102c0,-4.484 -3.632,-8.116 -8.116,-8.116l-142.57,0c-4.484,0 -8.116,3.632 -8.116,8.116s3.631,8.126 8.116,8.126l142.57,0c4.484,0 8.116,-3.641 8.116,-8.126z"/>
  <path fill="#cecece" id="svg_5" d="m391.417,372.249c0,-4.484 -3.642,-8.115 -8.126,-8.115l-133.602,0c-4.484,0 -8.116,3.631 -8.116,8.115s3.631,8.116 8.116,8.116l133.602,0c4.485,0 8.126,-3.632 8.126,-8.116z"/>
 </g>
</svg>